<mxfile host="app.diagrams.net" agent="Mozilla/5.0 (Windows NT 10.0; Win64; x64) AppleWebKit/537.36 (KHTML, like Gecko) Chrome/140.0.0.0 Safari/537.36 Edg/140.0.0.0" version="28.2.0">
  <diagram name="PÃ¡gina-1" id="Du0FFAkblzkg8pXVaufV">
    <mxGraphModel dx="2484" dy="786" grid="1" gridSize="10" guides="1" tooltips="1" connect="1" arrows="1" fold="1" page="1" pageScale="1" pageWidth="827" pageHeight="1169" math="0" shadow="0">
      <root>
        <mxCell id="0" />
        <mxCell id="1" parent="0" />
        <mxCell id="2XGwjbtj3LddK5ASKoq5-1" value="User" style="whiteSpace=wrap;html=1;align=center;" vertex="1" parent="1">
          <mxGeometry x="160" y="585" width="100" height="40" as="geometry" />
        </mxCell>
        <mxCell id="2XGwjbtj3LddK5ASKoq5-3" value="UserId" style="ellipse;whiteSpace=wrap;html=1;align=center;fontStyle=4;fillColor=#9BEEFF;" vertex="1" parent="1">
          <mxGeometry x="80" y="640" width="50" height="40" as="geometry" />
        </mxCell>
        <mxCell id="2XGwjbtj3LddK5ASKoq5-4" value="FullName" style="ellipse;whiteSpace=wrap;html=1;align=center;" vertex="1" parent="1">
          <mxGeometry x="130" y="660" width="60" height="40" as="geometry" />
        </mxCell>
        <mxCell id="2XGwjbtj3LddK5ASKoq5-5" value="CreatedAtUtc" style="ellipse;whiteSpace=wrap;html=1;align=center;" vertex="1" parent="1">
          <mxGeometry x="240" y="650" width="80" height="40" as="geometry" />
        </mxCell>
        <mxCell id="2XGwjbtj3LddK5ASKoq5-6" value="" style="endArrow=none;html=1;rounded=0;exitX=1;exitY=0;exitDx=0;exitDy=0;entryX=0;entryY=0.5;entryDx=0;entryDy=0;" edge="1" parent="1" source="2XGwjbtj3LddK5ASKoq5-3" target="2XGwjbtj3LddK5ASKoq5-1">
          <mxGeometry width="50" height="50" relative="1" as="geometry">
            <mxPoint x="410" y="630" as="sourcePoint" />
            <mxPoint x="460" y="580" as="targetPoint" />
          </mxGeometry>
        </mxCell>
        <mxCell id="2XGwjbtj3LddK5ASKoq5-7" value="" style="endArrow=none;html=1;rounded=0;exitX=0.5;exitY=0;exitDx=0;exitDy=0;entryX=0.25;entryY=1;entryDx=0;entryDy=0;" edge="1" parent="1" source="2XGwjbtj3LddK5ASKoq5-4" target="2XGwjbtj3LddK5ASKoq5-1">
          <mxGeometry width="50" height="50" relative="1" as="geometry">
            <mxPoint x="120" y="655" as="sourcePoint" />
            <mxPoint x="190" y="620" as="targetPoint" />
          </mxGeometry>
        </mxCell>
        <mxCell id="2XGwjbtj3LddK5ASKoq5-8" value="NFT" style="whiteSpace=wrap;html=1;align=center;" vertex="1" parent="1">
          <mxGeometry x="563" y="585" width="100" height="40" as="geometry" />
        </mxCell>
        <mxCell id="2XGwjbtj3LddK5ASKoq5-9" value="NFTId" style="ellipse;whiteSpace=wrap;html=1;align=center;fontStyle=4;fillColor=#9BEEFF;" vertex="1" parent="1">
          <mxGeometry x="465" y="630" width="50" height="40" as="geometry" />
        </mxCell>
        <mxCell id="2XGwjbtj3LddK5ASKoq5-10" value="Name" style="ellipse;whiteSpace=wrap;html=1;align=center;" vertex="1" parent="1">
          <mxGeometry x="585" y="500" width="60" height="40" as="geometry" />
        </mxCell>
        <mxCell id="2XGwjbtj3LddK5ASKoq5-11" value="Description" style="ellipse;whiteSpace=wrap;html=1;align=center;" vertex="1" parent="1">
          <mxGeometry x="690" y="545" width="67" height="40" as="geometry" />
        </mxCell>
        <mxCell id="2XGwjbtj3LddK5ASKoq5-12" value="ContentType" style="ellipse;whiteSpace=wrap;html=1;align=center;" vertex="1" parent="1">
          <mxGeometry x="460" y="680" width="80" height="40" as="geometry" />
        </mxCell>
        <mxCell id="2XGwjbtj3LddK5ASKoq5-13" value="HashCode" style="ellipse;whiteSpace=wrap;html=1;align=center;" vertex="1" parent="1">
          <mxGeometry x="455" y="545" width="60" height="40" as="geometry" />
        </mxCell>
        <mxCell id="2XGwjbtj3LddK5ASKoq5-14" value="FileSizeBytes" style="ellipse;whiteSpace=wrap;html=1;align=center;" vertex="1" parent="1">
          <mxGeometry x="480" y="730" width="87" height="40" as="geometry" />
        </mxCell>
        <mxCell id="2XGwjbtj3LddK5ASKoq5-15" value="WidthPx" style="ellipse;whiteSpace=wrap;html=1;align=center;" vertex="1" parent="1">
          <mxGeometry x="710" y="650" width="60" height="40" as="geometry" />
        </mxCell>
        <mxCell id="2XGwjbtj3LddK5ASKoq5-16" value="HeightPx" style="ellipse;whiteSpace=wrap;html=1;align=center;" vertex="1" parent="1">
          <mxGeometry x="723" y="730" width="60" height="40" as="geometry" />
        </mxCell>
        <mxCell id="2XGwjbtj3LddK5ASKoq5-17" value="SuggestedPriceETH" style="ellipse;whiteSpace=wrap;html=1;align=center;" vertex="1" parent="1">
          <mxGeometry x="740" y="690" width="130" height="40" as="geometry" />
        </mxCell>
        <mxCell id="2XGwjbtj3LddK5ASKoq5-18" value="StatusCode" style="ellipse;whiteSpace=wrap;html=1;align=center;" vertex="1" parent="1">
          <mxGeometry x="497" y="505" width="70" height="40" as="geometry" />
        </mxCell>
        <mxCell id="2XGwjbtj3LddK5ASKoq5-19" value="CreatedAtUtc" style="ellipse;whiteSpace=wrap;html=1;align=center;" vertex="1" parent="1">
          <mxGeometry x="560" y="760" width="80" height="40" as="geometry" />
        </mxCell>
        <mxCell id="2XGwjbtj3LddK5ASKoq5-20" value="ApprovedAtUtc" style="ellipse;whiteSpace=wrap;html=1;align=center;" vertex="1" parent="1">
          <mxGeometry x="640" y="760" width="90" height="40" as="geometry" />
        </mxCell>
        <mxCell id="2XGwjbtj3LddK5ASKoq5-21" value="CurationReview" style="whiteSpace=wrap;html=1;align=center;" vertex="1" parent="1">
          <mxGeometry x="827" y="420" width="100" height="40" as="geometry" />
        </mxCell>
        <mxCell id="2XGwjbtj3LddK5ASKoq5-22" value="creates" style="shape=rhombus;perimeter=rhombusPerimeter;whiteSpace=wrap;html=1;align=center;" vertex="1" parent="1">
          <mxGeometry x="330" y="580" width="120" height="60" as="geometry" />
        </mxCell>
        <mxCell id="2XGwjbtj3LddK5ASKoq5-23" value="receives" style="shape=rhombus;perimeter=rhombusPerimeter;whiteSpace=wrap;html=1;align=center;" vertex="1" parent="1">
          <mxGeometry x="693" y="480" width="120" height="60" as="geometry" />
        </mxCell>
        <mxCell id="2XGwjbtj3LddK5ASKoq5-24" value="ReviewId" style="ellipse;whiteSpace=wrap;html=1;align=center;fontStyle=4;fillColor=#9BEEFF;" vertex="1" parent="1">
          <mxGeometry x="800" y="330" width="60" height="40" as="geometry" />
        </mxCell>
        <mxCell id="2XGwjbtj3LddK5ASKoq5-25" value="DecisionCode" style="ellipse;whiteSpace=wrap;html=1;align=center;" vertex="1" parent="1">
          <mxGeometry x="880" y="340" width="80" height="40" as="geometry" />
        </mxCell>
        <mxCell id="2XGwjbtj3LddK5ASKoq5-26" value="Comment" style="ellipse;whiteSpace=wrap;html=1;align=center;" vertex="1" parent="1">
          <mxGeometry x="980" y="370" width="67" height="40" as="geometry" />
        </mxCell>
        <mxCell id="2XGwjbtj3LddK5ASKoq5-27" value="StartedAtUtc" style="ellipse;whiteSpace=wrap;html=1;align=center;" vertex="1" parent="1">
          <mxGeometry x="973.5" y="430" width="80" height="40" as="geometry" />
        </mxCell>
        <mxCell id="2XGwjbtj3LddK5ASKoq5-28" value="CreatedAtUtc" style="ellipse;whiteSpace=wrap;html=1;align=center;" vertex="1" parent="1">
          <mxGeometry x="900" y="480" width="80" height="40" as="geometry" />
        </mxCell>
        <mxCell id="2XGwjbtj3LddK5ASKoq5-29" value="Auction" style="whiteSpace=wrap;html=1;align=center;" vertex="1" parent="1">
          <mxGeometry x="1000" y="585" width="100" height="40" as="geometry" />
        </mxCell>
        <mxCell id="2XGwjbtj3LddK5ASKoq5-30" value="performs" style="shape=rhombus;perimeter=rhombusPerimeter;whiteSpace=wrap;html=1;align=center;" vertex="1" parent="1">
          <mxGeometry x="430" y="440" width="120" height="60" as="geometry" />
        </mxCell>
        <mxCell id="2XGwjbtj3LddK5ASKoq5-31" value="Listed in" style="shape=rhombus;perimeter=rhombusPerimeter;whiteSpace=wrap;html=1;align=center;" vertex="1" parent="1">
          <mxGeometry x="770" y="575" width="120" height="60" as="geometry" />
        </mxCell>
        <mxCell id="2XGwjbtj3LddK5ASKoq5-32" value="AuctionId" style="ellipse;whiteSpace=wrap;html=1;align=center;fontStyle=4;fillColor=#9BEEFF;" vertex="1" parent="1">
          <mxGeometry x="913.5" y="630" width="60" height="40" as="geometry" />
        </mxCell>
        <mxCell id="2XGwjbtj3LddK5ASKoq5-33" value="StartAtUtc" style="ellipse;whiteSpace=wrap;html=1;align=center;" vertex="1" parent="1">
          <mxGeometry x="907" y="680" width="73" height="40" as="geometry" />
        </mxCell>
        <mxCell id="2XGwjbtj3LddK5ASKoq5-34" value="EndAtUtc" style="ellipse;whiteSpace=wrap;html=1;align=center;" vertex="1" parent="1">
          <mxGeometry x="973.5" y="720" width="60" height="40" as="geometry" />
        </mxCell>
        <mxCell id="2XGwjbtj3LddK5ASKoq5-35" value="StartingPriceETH" style="ellipse;whiteSpace=wrap;html=1;align=center;" vertex="1" parent="1">
          <mxGeometry x="1160" y="580" width="100" height="40" as="geometry" />
        </mxCell>
        <mxCell id="2XGwjbtj3LddK5ASKoq5-36" value="CurrentPriceETH" style="ellipse;whiteSpace=wrap;html=1;align=center;" vertex="1" parent="1">
          <mxGeometry x="1000" y="520" width="100" height="40" as="geometry" />
        </mxCell>
        <mxCell id="2XGwjbtj3LddK5ASKoq5-37" value="StatusCode" style="ellipse;whiteSpace=wrap;html=1;align=center;" vertex="1" parent="1">
          <mxGeometry x="1110" y="700" width="70" height="40" as="geometry" />
        </mxCell>
        <mxCell id="2XGwjbtj3LddK5ASKoq5-38" value="receives" style="shape=rhombus;perimeter=rhombusPerimeter;whiteSpace=wrap;html=1;align=center;" vertex="1" parent="1">
          <mxGeometry x="1140" y="470" width="120" height="60" as="geometry" />
        </mxCell>
        <mxCell id="2XGwjbtj3LddK5ASKoq5-39" value="locks" style="shape=rhombus;perimeter=rhombusPerimeter;whiteSpace=wrap;html=1;align=center;" vertex="1" parent="1">
          <mxGeometry x="1220" y="650" width="120" height="60" as="geometry" />
        </mxCell>
        <mxCell id="2XGwjbtj3LddK5ASKoq5-41" value="FundsReservation" style="whiteSpace=wrap;html=1;align=center;" vertex="1" parent="1">
          <mxGeometry x="1230" y="760" width="100" height="40" as="geometry" />
        </mxCell>
        <mxCell id="2XGwjbtj3LddK5ASKoq5-43" value="posts" style="shape=rhombus;perimeter=rhombusPerimeter;whiteSpace=wrap;html=1;align=center;" vertex="1" parent="1">
          <mxGeometry x="1020" y="760" width="120" height="60" as="geometry" />
        </mxCell>
        <mxCell id="2XGwjbtj3LddK5ASKoq5-44" value="BidId" style="ellipse;whiteSpace=wrap;html=1;align=center;fontStyle=4;fillColor=#9BEEFF;" vertex="1" parent="1">
          <mxGeometry x="1211" y="330" width="60" height="40" as="geometry" />
        </mxCell>
        <mxCell id="2XGwjbtj3LddK5ASKoq5-45" value="AmountETH" style="ellipse;whiteSpace=wrap;html=1;align=center;" vertex="1" parent="1">
          <mxGeometry x="1296.5" y="310" width="73.5" height="40" as="geometry" />
        </mxCell>
        <mxCell id="2XGwjbtj3LddK5ASKoq5-46" value="PlacedAtUtc" style="ellipse;whiteSpace=wrap;html=1;align=center;" vertex="1" parent="1">
          <mxGeometry x="1390" y="330" width="70" height="40" as="geometry" />
        </mxCell>
        <mxCell id="2XGwjbtj3LddK5ASKoq5-47" value="" style="endArrow=none;html=1;rounded=0;exitX=0.998;exitY=0.635;exitDx=0;exitDy=0;entryX=0;entryY=0.5;entryDx=0;entryDy=0;exitPerimeter=0;" edge="1" parent="1" source="2XGwjbtj3LddK5ASKoq5-1" target="2XGwjbtj3LddK5ASKoq5-22">
          <mxGeometry width="50" height="50" relative="1" as="geometry">
            <mxPoint x="200" y="675" as="sourcePoint" />
            <mxPoint x="225" y="640" as="targetPoint" />
          </mxGeometry>
        </mxCell>
        <mxCell id="2XGwjbtj3LddK5ASKoq5-48" value="" style="endArrow=none;html=1;rounded=0;exitX=1;exitY=0.5;exitDx=0;exitDy=0;entryX=0.016;entryY=0.618;entryDx=0;entryDy=0;entryPerimeter=0;" edge="1" parent="1" source="2XGwjbtj3LddK5ASKoq5-22" target="2XGwjbtj3LddK5ASKoq5-8">
          <mxGeometry width="50" height="50" relative="1" as="geometry">
            <mxPoint x="360" y="695" as="sourcePoint" />
            <mxPoint x="385" y="660" as="targetPoint" />
          </mxGeometry>
        </mxCell>
        <mxCell id="2XGwjbtj3LddK5ASKoq5-49" value="" style="endArrow=none;html=1;rounded=0;exitX=1;exitY=0;exitDx=0;exitDy=0;entryX=0;entryY=1;entryDx=0;entryDy=0;" edge="1" parent="1" source="2XGwjbtj3LddK5ASKoq5-1" target="2XGwjbtj3LddK5ASKoq5-30">
          <mxGeometry width="50" height="50" relative="1" as="geometry">
            <mxPoint x="370" y="575" as="sourcePoint" />
            <mxPoint x="395" y="540" as="targetPoint" />
          </mxGeometry>
        </mxCell>
        <mxCell id="2XGwjbtj3LddK5ASKoq5-50" value="" style="endArrow=none;html=1;rounded=0;exitX=1;exitY=0.5;exitDx=0;exitDy=0;entryX=0;entryY=0.5;entryDx=0;entryDy=0;" edge="1" parent="1" source="2XGwjbtj3LddK5ASKoq5-30" target="2XGwjbtj3LddK5ASKoq5-21">
          <mxGeometry width="50" height="50" relative="1" as="geometry">
            <mxPoint x="560" y="505" as="sourcePoint" />
            <mxPoint x="585" y="470" as="targetPoint" />
          </mxGeometry>
        </mxCell>
        <mxCell id="2XGwjbtj3LddK5ASKoq5-52" value="" style="endArrow=none;html=1;rounded=0;exitX=0.602;exitY=0.049;exitDx=0;exitDy=0;entryX=0;entryY=1;entryDx=0;entryDy=0;exitPerimeter=0;" edge="1" parent="1" source="2XGwjbtj3LddK5ASKoq5-8" target="2XGwjbtj3LddK5ASKoq5-23">
          <mxGeometry width="50" height="50" relative="1" as="geometry">
            <mxPoint x="660" y="575" as="sourcePoint" />
            <mxPoint x="685" y="540" as="targetPoint" />
            <Array as="points">
              <mxPoint x="660" y="530" />
            </Array>
          </mxGeometry>
        </mxCell>
        <mxCell id="2XGwjbtj3LddK5ASKoq5-53" value="" style="endArrow=none;html=1;rounded=0;exitX=1;exitY=0.5;exitDx=0;exitDy=0;entryX=0.5;entryY=1;entryDx=0;entryDy=0;" edge="1" parent="1" source="2XGwjbtj3LddK5ASKoq5-23" target="2XGwjbtj3LddK5ASKoq5-21">
          <mxGeometry width="50" height="50" relative="1" as="geometry">
            <mxPoint x="840" y="565" as="sourcePoint" />
            <mxPoint x="865" y="530" as="targetPoint" />
            <Array as="points">
              <mxPoint x="877" y="480" />
            </Array>
          </mxGeometry>
        </mxCell>
        <mxCell id="2XGwjbtj3LddK5ASKoq5-54" value="" style="endArrow=none;html=1;rounded=0;exitX=1;exitY=0.5;exitDx=0;exitDy=0;entryX=0;entryY=0.5;entryDx=0;entryDy=0;" edge="1" parent="1" source="2XGwjbtj3LddK5ASKoq5-8" target="2XGwjbtj3LddK5ASKoq5-31">
          <mxGeometry width="50" height="50" relative="1" as="geometry">
            <mxPoint x="820" y="565" as="sourcePoint" />
            <mxPoint x="845" y="530" as="targetPoint" />
          </mxGeometry>
        </mxCell>
        <mxCell id="2XGwjbtj3LddK5ASKoq5-55" value="" style="endArrow=none;html=1;rounded=0;exitX=1;exitY=0.5;exitDx=0;exitDy=0;entryX=0;entryY=0.5;entryDx=0;entryDy=0;" edge="1" parent="1" source="2XGwjbtj3LddK5ASKoq5-31" target="2XGwjbtj3LddK5ASKoq5-29">
          <mxGeometry width="50" height="50" relative="1" as="geometry">
            <mxPoint x="860" y="585" as="sourcePoint" />
            <mxPoint x="885" y="550" as="targetPoint" />
          </mxGeometry>
        </mxCell>
        <mxCell id="2XGwjbtj3LddK5ASKoq5-56" value="" style="endArrow=none;html=1;rounded=0;exitX=1;exitY=0;exitDx=0;exitDy=0;entryX=0.291;entryY=0.777;entryDx=0;entryDy=0;entryPerimeter=0;" edge="1" parent="1" source="2XGwjbtj3LddK5ASKoq5-29" target="2XGwjbtj3LddK5ASKoq5-38">
          <mxGeometry width="50" height="50" relative="1" as="geometry">
            <mxPoint x="1120" y="645" as="sourcePoint" />
            <mxPoint x="1145" y="610" as="targetPoint" />
          </mxGeometry>
        </mxCell>
        <mxCell id="2XGwjbtj3LddK5ASKoq5-57" value="" style="endArrow=none;html=1;rounded=0;exitX=1;exitY=0.5;exitDx=0;exitDy=0;entryX=0.5;entryY=1;entryDx=0;entryDy=0;" edge="1" parent="1" source="2XGwjbtj3LddK5ASKoq5-38" target="2XGwjbtj3LddK5ASKoq5-73">
          <mxGeometry width="50" height="50" relative="1" as="geometry">
            <mxPoint x="1250" y="585" as="sourcePoint" />
            <mxPoint x="1330" y="429.9999999999999" as="targetPoint" />
          </mxGeometry>
        </mxCell>
        <mxCell id="2XGwjbtj3LddK5ASKoq5-58" value="" style="endArrow=none;html=1;rounded=0;exitX=1;exitY=1;exitDx=0;exitDy=0;entryX=0;entryY=0;entryDx=0;entryDy=0;" edge="1" parent="1" source="2XGwjbtj3LddK5ASKoq5-29" target="2XGwjbtj3LddK5ASKoq5-39">
          <mxGeometry width="50" height="50" relative="1" as="geometry">
            <mxPoint x="1250" y="585" as="sourcePoint" />
            <mxPoint x="1275" y="550" as="targetPoint" />
          </mxGeometry>
        </mxCell>
        <mxCell id="2XGwjbtj3LddK5ASKoq5-59" value="" style="endArrow=none;html=1;rounded=0;entryX=0.5;entryY=0;entryDx=0;entryDy=0;exitX=0.5;exitY=1;exitDx=0;exitDy=0;" edge="1" parent="1" source="2XGwjbtj3LddK5ASKoq5-39" target="2XGwjbtj3LddK5ASKoq5-41">
          <mxGeometry width="50" height="50" relative="1" as="geometry">
            <mxPoint x="1410" y="715" as="sourcePoint" />
            <mxPoint x="1435" y="680" as="targetPoint" />
          </mxGeometry>
        </mxCell>
        <mxCell id="2XGwjbtj3LddK5ASKoq5-60" value="" style="endArrow=none;html=1;rounded=0;exitX=0.5;exitY=1;exitDx=0;exitDy=0;entryX=0.5;entryY=0;entryDx=0;entryDy=0;" edge="1" parent="1" source="2XGwjbtj3LddK5ASKoq5-29" target="2XGwjbtj3LddK5ASKoq5-43">
          <mxGeometry width="50" height="50" relative="1" as="geometry">
            <mxPoint x="1200" y="895" as="sourcePoint" />
            <mxPoint x="1225" y="860" as="targetPoint" />
          </mxGeometry>
        </mxCell>
        <mxCell id="2XGwjbtj3LddK5ASKoq5-61" value="" style="endArrow=none;html=1;rounded=0;exitX=0.5;exitY=1;exitDx=0;exitDy=0;entryX=0.5;entryY=0;entryDx=0;entryDy=0;" edge="1" parent="1" source="2XGwjbtj3LddK5ASKoq5-43" target="2XGwjbtj3LddK5ASKoq5-88">
          <mxGeometry width="50" height="50" relative="1" as="geometry">
            <mxPoint x="1180" y="885" as="sourcePoint" />
            <mxPoint x="1083.5" y="890" as="targetPoint" />
          </mxGeometry>
        </mxCell>
        <mxCell id="2XGwjbtj3LddK5ASKoq5-62" value="ReservationId" style="ellipse;whiteSpace=wrap;html=1;align=center;fontStyle=4;fillColor=#9BEEFF;" vertex="1" parent="1">
          <mxGeometry x="1380" y="770" width="90" height="40" as="geometry" />
        </mxCell>
        <mxCell id="2XGwjbtj3LddK5ASKoq5-63" value="AmountETH" style="ellipse;whiteSpace=wrap;html=1;align=center;" vertex="1" parent="1">
          <mxGeometry x="1340" y="830" width="70" height="40" as="geometry" />
        </mxCell>
        <mxCell id="2XGwjbtj3LddK5ASKoq5-64" value="StateCode" style="ellipse;whiteSpace=wrap;html=1;align=center;" vertex="1" parent="1">
          <mxGeometry x="1290" y="870" width="70" height="40" as="geometry" />
        </mxCell>
        <mxCell id="2XGwjbtj3LddK5ASKoq5-65" value="CreatedAtUtc" style="ellipse;whiteSpace=wrap;html=1;align=center;" vertex="1" parent="1">
          <mxGeometry x="1156" y="820" width="85" height="40" as="geometry" />
        </mxCell>
        <mxCell id="2XGwjbtj3LddK5ASKoq5-66" value="UpdatedAtUtc" style="ellipse;whiteSpace=wrap;html=1;align=center;" vertex="1" parent="1">
          <mxGeometry x="1350" y="720" width="80" height="40" as="geometry" />
        </mxCell>
        <mxCell id="2XGwjbtj3LddK5ASKoq5-67" value="" style="endArrow=none;html=1;rounded=0;exitX=0.198;exitY=0.997;exitDx=0;exitDy=0;entryX=0.5;entryY=0;entryDx=0;entryDy=0;exitPerimeter=0;" edge="1" parent="1" source="2XGwjbtj3LddK5ASKoq5-29" target="2XGwjbtj3LddK5ASKoq5-34">
          <mxGeometry width="50" height="50" relative="1" as="geometry">
            <mxPoint x="1060" y="680" as="sourcePoint" />
            <mxPoint x="1090" y="815" as="targetPoint" />
          </mxGeometry>
        </mxCell>
        <mxCell id="2XGwjbtj3LddK5ASKoq5-68" value="" style="endArrow=none;html=1;rounded=0;exitX=0;exitY=0.75;exitDx=0;exitDy=0;entryX=1;entryY=0;entryDx=0;entryDy=0;" edge="1" parent="1" source="2XGwjbtj3LddK5ASKoq5-29" target="2XGwjbtj3LddK5ASKoq5-32">
          <mxGeometry width="50" height="50" relative="1" as="geometry">
            <mxPoint x="1026" y="680" as="sourcePoint" />
            <mxPoint x="1010" y="775" as="targetPoint" />
          </mxGeometry>
        </mxCell>
        <mxCell id="2XGwjbtj3LddK5ASKoq5-69" value="" style="endArrow=none;html=1;rounded=0;exitX=0.094;exitY=0.98;exitDx=0;exitDy=0;entryX=1;entryY=0;entryDx=0;entryDy=0;exitPerimeter=0;" edge="1" parent="1" source="2XGwjbtj3LddK5ASKoq5-29" target="2XGwjbtj3LddK5ASKoq5-33">
          <mxGeometry width="50" height="50" relative="1" as="geometry">
            <mxPoint x="1046" y="700" as="sourcePoint" />
            <mxPoint x="1030" y="795" as="targetPoint" />
          </mxGeometry>
        </mxCell>
        <mxCell id="2XGwjbtj3LddK5ASKoq5-70" value="" style="endArrow=none;html=1;rounded=0;exitX=0.839;exitY=0.98;exitDx=0;exitDy=0;entryX=0.5;entryY=0;entryDx=0;entryDy=0;exitPerimeter=0;" edge="1" parent="1" source="2XGwjbtj3LddK5ASKoq5-29" target="2XGwjbtj3LddK5ASKoq5-37">
          <mxGeometry width="50" height="50" relative="1" as="geometry">
            <mxPoint x="1056" y="720" as="sourcePoint" />
            <mxPoint x="1040" y="815" as="targetPoint" />
          </mxGeometry>
        </mxCell>
        <mxCell id="2XGwjbtj3LddK5ASKoq5-71" value="" style="endArrow=none;html=1;rounded=0;exitX=0;exitY=0.5;exitDx=0;exitDy=0;entryX=1;entryY=0.5;entryDx=0;entryDy=0;" edge="1" parent="1" source="2XGwjbtj3LddK5ASKoq5-35" target="2XGwjbtj3LddK5ASKoq5-29">
          <mxGeometry width="50" height="50" relative="1" as="geometry">
            <mxPoint x="1286" y="550" as="sourcePoint" />
            <mxPoint x="1270" y="645" as="targetPoint" />
          </mxGeometry>
        </mxCell>
        <mxCell id="2XGwjbtj3LddK5ASKoq5-72" value="" style="endArrow=none;html=1;rounded=0;exitX=0.5;exitY=1;exitDx=0;exitDy=0;entryX=0.5;entryY=0;entryDx=0;entryDy=0;" edge="1" parent="1" source="2XGwjbtj3LddK5ASKoq5-36" target="2XGwjbtj3LddK5ASKoq5-29">
          <mxGeometry width="50" height="50" relative="1" as="geometry">
            <mxPoint x="1306" y="560" as="sourcePoint" />
            <mxPoint x="1290" y="655" as="targetPoint" />
          </mxGeometry>
        </mxCell>
        <mxCell id="2XGwjbtj3LddK5ASKoq5-73" value="Bid" style="shape=ext;margin=3;double=1;whiteSpace=wrap;html=1;align=center;" vertex="1" parent="1">
          <mxGeometry x="1280" y="390" width="100" height="40" as="geometry" />
        </mxCell>
        <mxCell id="2XGwjbtj3LddK5ASKoq5-74" value="" style="endArrow=none;html=1;rounded=0;exitX=0.5;exitY=1;exitDx=0;exitDy=0;entryX=0;entryY=0;entryDx=0;entryDy=0;" edge="1" parent="1" source="2XGwjbtj3LddK5ASKoq5-44" target="2XGwjbtj3LddK5ASKoq5-73">
          <mxGeometry width="50" height="50" relative="1" as="geometry">
            <mxPoint x="1526" y="390" as="sourcePoint" />
            <mxPoint x="1510" y="485" as="targetPoint" />
          </mxGeometry>
        </mxCell>
        <mxCell id="2XGwjbtj3LddK5ASKoq5-75" value="" style="endArrow=none;html=1;rounded=0;exitX=0.5;exitY=1;exitDx=0;exitDy=0;entryX=0.577;entryY=0.062;entryDx=0;entryDy=0;entryPerimeter=0;" edge="1" parent="1" source="2XGwjbtj3LddK5ASKoq5-45" target="2XGwjbtj3LddK5ASKoq5-73">
          <mxGeometry width="50" height="50" relative="1" as="geometry">
            <mxPoint x="1456" y="400" as="sourcePoint" />
            <mxPoint x="1440" y="495" as="targetPoint" />
          </mxGeometry>
        </mxCell>
        <mxCell id="2XGwjbtj3LddK5ASKoq5-76" value="" style="endArrow=none;html=1;rounded=0;exitX=0.5;exitY=1;exitDx=0;exitDy=0;entryX=1;entryY=0.5;entryDx=0;entryDy=0;" edge="1" parent="1" source="2XGwjbtj3LddK5ASKoq5-46" target="2XGwjbtj3LddK5ASKoq5-73">
          <mxGeometry width="50" height="50" relative="1" as="geometry">
            <mxPoint x="1476" y="390" as="sourcePoint" />
            <mxPoint x="1460" y="485" as="targetPoint" />
          </mxGeometry>
        </mxCell>
        <mxCell id="2XGwjbtj3LddK5ASKoq5-77" value="" style="endArrow=none;html=1;rounded=0;exitX=0.5;exitY=1;exitDx=0;exitDy=0;entryX=0.148;entryY=0.019;entryDx=0;entryDy=0;entryPerimeter=0;" edge="1" parent="1" source="2XGwjbtj3LddK5ASKoq5-24" target="2XGwjbtj3LddK5ASKoq5-21">
          <mxGeometry width="50" height="50" relative="1" as="geometry">
            <mxPoint x="976" y="320" as="sourcePoint" />
            <mxPoint x="960" y="415" as="targetPoint" />
          </mxGeometry>
        </mxCell>
        <mxCell id="2XGwjbtj3LddK5ASKoq5-78" value="" style="endArrow=none;html=1;rounded=0;exitX=0.5;exitY=1;exitDx=0;exitDy=0;entryX=0.5;entryY=0;entryDx=0;entryDy=0;" edge="1" parent="1" source="2XGwjbtj3LddK5ASKoq5-25" target="2XGwjbtj3LddK5ASKoq5-21">
          <mxGeometry width="50" height="50" relative="1" as="geometry">
            <mxPoint x="1046" y="320" as="sourcePoint" />
            <mxPoint x="1030" y="415" as="targetPoint" />
          </mxGeometry>
        </mxCell>
        <mxCell id="2XGwjbtj3LddK5ASKoq5-79" value="" style="endArrow=none;html=1;rounded=0;exitX=0;exitY=0.5;exitDx=0;exitDy=0;entryX=1;entryY=0;entryDx=0;entryDy=0;" edge="1" parent="1" source="2XGwjbtj3LddK5ASKoq5-26" target="2XGwjbtj3LddK5ASKoq5-21">
          <mxGeometry width="50" height="50" relative="1" as="geometry">
            <mxPoint x="1026" y="350" as="sourcePoint" />
            <mxPoint x="1010" y="445" as="targetPoint" />
          </mxGeometry>
        </mxCell>
        <mxCell id="2XGwjbtj3LddK5ASKoq5-80" value="" style="endArrow=none;html=1;rounded=0;exitX=0;exitY=0.5;exitDx=0;exitDy=0;entryX=1;entryY=0.5;entryDx=0;entryDy=0;" edge="1" parent="1" source="2XGwjbtj3LddK5ASKoq5-27" target="2XGwjbtj3LddK5ASKoq5-21">
          <mxGeometry width="50" height="50" relative="1" as="geometry">
            <mxPoint x="1096" y="370" as="sourcePoint" />
            <mxPoint x="1080" y="465" as="targetPoint" />
          </mxGeometry>
        </mxCell>
        <mxCell id="2XGwjbtj3LddK5ASKoq5-81" value="" style="endArrow=none;html=1;rounded=0;exitX=0.213;exitY=0.122;exitDx=0;exitDy=0;entryX=0.75;entryY=1;entryDx=0;entryDy=0;exitPerimeter=0;" edge="1" parent="1" source="2XGwjbtj3LddK5ASKoq5-28" target="2XGwjbtj3LddK5ASKoq5-21">
          <mxGeometry width="50" height="50" relative="1" as="geometry">
            <mxPoint x="1106" y="430" as="sourcePoint" />
            <mxPoint x="1090" y="525" as="targetPoint" />
          </mxGeometry>
        </mxCell>
        <mxCell id="2XGwjbtj3LddK5ASKoq5-83" value="" style="endArrow=none;html=1;rounded=0;exitX=0;exitY=0.5;exitDx=0;exitDy=0;entryX=1;entryY=0;entryDx=0;entryDy=0;" edge="1" parent="1" source="2XGwjbtj3LddK5ASKoq5-66" target="2XGwjbtj3LddK5ASKoq5-41">
          <mxGeometry width="50" height="50" relative="1" as="geometry">
            <mxPoint x="1426" y="680" as="sourcePoint" />
            <mxPoint x="1410" y="775" as="targetPoint" />
          </mxGeometry>
        </mxCell>
        <mxCell id="2XGwjbtj3LddK5ASKoq5-84" value="" style="endArrow=none;html=1;rounded=0;exitX=0;exitY=0.5;exitDx=0;exitDy=0;entryX=1;entryY=0.5;entryDx=0;entryDy=0;" edge="1" parent="1" source="2XGwjbtj3LddK5ASKoq5-62" target="2XGwjbtj3LddK5ASKoq5-41">
          <mxGeometry width="50" height="50" relative="1" as="geometry">
            <mxPoint x="1486" y="720" as="sourcePoint" />
            <mxPoint x="1470" y="815" as="targetPoint" />
          </mxGeometry>
        </mxCell>
        <mxCell id="2XGwjbtj3LddK5ASKoq5-85" value="" style="endArrow=none;html=1;rounded=0;exitX=0.5;exitY=0;exitDx=0;exitDy=0;entryX=1;entryY=1;entryDx=0;entryDy=0;" edge="1" parent="1" source="2XGwjbtj3LddK5ASKoq5-63" target="2XGwjbtj3LddK5ASKoq5-41">
          <mxGeometry width="50" height="50" relative="1" as="geometry">
            <mxPoint x="1376" y="900" as="sourcePoint" />
            <mxPoint x="1360" y="995" as="targetPoint" />
          </mxGeometry>
        </mxCell>
        <mxCell id="2XGwjbtj3LddK5ASKoq5-86" value="" style="endArrow=none;html=1;rounded=0;exitX=0.5;exitY=0;exitDx=0;exitDy=0;entryX=0.5;entryY=1;entryDx=0;entryDy=0;" edge="1" parent="1" source="2XGwjbtj3LddK5ASKoq5-64" target="2XGwjbtj3LddK5ASKoq5-41">
          <mxGeometry width="50" height="50" relative="1" as="geometry">
            <mxPoint x="1366" y="930" as="sourcePoint" />
            <mxPoint x="1350" y="1025" as="targetPoint" />
          </mxGeometry>
        </mxCell>
        <mxCell id="2XGwjbtj3LddK5ASKoq5-87" value="" style="endArrow=none;html=1;rounded=0;exitX=0.5;exitY=0;exitDx=0;exitDy=0;entryX=0;entryY=1;entryDx=0;entryDy=0;" edge="1" parent="1" source="2XGwjbtj3LddK5ASKoq5-65" target="2XGwjbtj3LddK5ASKoq5-41">
          <mxGeometry width="50" height="50" relative="1" as="geometry">
            <mxPoint x="1356" y="900" as="sourcePoint" />
            <mxPoint x="1340" y="995" as="targetPoint" />
          </mxGeometry>
        </mxCell>
        <mxCell id="2XGwjbtj3LddK5ASKoq5-88" value="Ledger" style="shape=ext;margin=3;double=1;whiteSpace=wrap;html=1;align=center;" vertex="1" parent="1">
          <mxGeometry x="1030" y="880" width="100" height="40" as="geometry" />
        </mxCell>
        <mxCell id="2XGwjbtj3LddK5ASKoq5-89" value="EntryId" style="ellipse;whiteSpace=wrap;html=1;align=center;fontStyle=4;fillColor=#9BEEFF;" vertex="1" parent="1">
          <mxGeometry x="1151" y="910" width="60" height="40" as="geometry" />
        </mxCell>
        <mxCell id="2XGwjbtj3LddK5ASKoq5-90" value="EntryType" style="ellipse;whiteSpace=wrap;html=1;align=center;" vertex="1" parent="1">
          <mxGeometry x="1100" y="960" width="70" height="40" as="geometry" />
        </mxCell>
        <mxCell id="2XGwjbtj3LddK5ASKoq5-91" value="AmountETH" style="ellipse;whiteSpace=wrap;html=1;align=center;" vertex="1" parent="1">
          <mxGeometry x="1020" y="980" width="70" height="40" as="geometry" />
        </mxCell>
        <mxCell id="2XGwjbtj3LddK5ASKoq5-92" value="Description" style="ellipse;whiteSpace=wrap;html=1;align=center;" vertex="1" parent="1">
          <mxGeometry x="940" y="960" width="70" height="40" as="geometry" />
        </mxCell>
        <mxCell id="2XGwjbtj3LddK5ASKoq5-93" value="CreatedAtUtc" style="ellipse;whiteSpace=wrap;html=1;align=center;" vertex="1" parent="1">
          <mxGeometry x="913.5" y="840" width="77" height="40" as="geometry" />
        </mxCell>
        <mxCell id="2XGwjbtj3LddK5ASKoq5-94" value="entries" style="shape=rhombus;perimeter=rhombusPerimeter;whiteSpace=wrap;html=1;align=center;" vertex="1" parent="1">
          <mxGeometry x="770" y="900" width="120" height="60" as="geometry" />
        </mxCell>
        <mxCell id="2XGwjbtj3LddK5ASKoq5-95" value="" style="endArrow=none;html=1;rounded=0;exitX=0.5;exitY=1;exitDx=0;exitDy=0;entryX=0;entryY=0.5;entryDx=0;entryDy=0;" edge="1" parent="1" source="2XGwjbtj3LddK5ASKoq5-1" target="2XGwjbtj3LddK5ASKoq5-94">
          <mxGeometry width="50" height="50" relative="1" as="geometry">
            <mxPoint x="310" y="600" as="sourcePoint" />
            <mxPoint x="403" y="600" as="targetPoint" />
            <Array as="points">
              <mxPoint x="230" y="830" />
            </Array>
          </mxGeometry>
        </mxCell>
        <mxCell id="2XGwjbtj3LddK5ASKoq5-96" value="" style="endArrow=none;html=1;rounded=0;exitX=1;exitY=0.5;exitDx=0;exitDy=0;entryX=0;entryY=0.5;entryDx=0;entryDy=0;" edge="1" parent="1" source="2XGwjbtj3LddK5ASKoq5-94" target="2XGwjbtj3LddK5ASKoq5-88">
          <mxGeometry width="50" height="50" relative="1" as="geometry">
            <mxPoint x="830" y="850" as="sourcePoint" />
            <mxPoint x="923" y="850" as="targetPoint" />
          </mxGeometry>
        </mxCell>
        <mxCell id="2XGwjbtj3LddK5ASKoq5-97" value="" style="endArrow=none;html=1;rounded=0;exitX=0;exitY=0;exitDx=0;exitDy=0;entryX=1;entryY=1;entryDx=0;entryDy=0;" edge="1" parent="1" source="2XGwjbtj3LddK5ASKoq5-88" target="2XGwjbtj3LddK5ASKoq5-93">
          <mxGeometry width="50" height="50" relative="1" as="geometry">
            <mxPoint x="970" y="800" as="sourcePoint" />
            <mxPoint x="1063" y="800" as="targetPoint" />
          </mxGeometry>
        </mxCell>
        <mxCell id="2XGwjbtj3LddK5ASKoq5-98" value="" style="endArrow=none;html=1;rounded=0;exitX=0.736;exitY=0;exitDx=0;exitDy=0;entryX=0.173;entryY=0.979;entryDx=0;entryDy=0;exitPerimeter=0;entryPerimeter=0;" edge="1" parent="1" source="2XGwjbtj3LddK5ASKoq5-92" target="2XGwjbtj3LddK5ASKoq5-88">
          <mxGeometry width="50" height="50" relative="1" as="geometry">
            <mxPoint x="1020" y="940" as="sourcePoint" />
            <mxPoint x="1113" y="940" as="targetPoint" />
          </mxGeometry>
        </mxCell>
        <mxCell id="2XGwjbtj3LddK5ASKoq5-99" value="" style="endArrow=none;html=1;rounded=0;exitX=0.5;exitY=0;exitDx=0;exitDy=0;entryX=0.398;entryY=1.083;entryDx=0;entryDy=0;entryPerimeter=0;" edge="1" parent="1" source="2XGwjbtj3LddK5ASKoq5-91" target="2XGwjbtj3LddK5ASKoq5-88">
          <mxGeometry width="50" height="50" relative="1" as="geometry">
            <mxPoint x="1050" y="940" as="sourcePoint" />
            <mxPoint x="1143" y="940" as="targetPoint" />
          </mxGeometry>
        </mxCell>
        <mxCell id="2XGwjbtj3LddK5ASKoq5-100" value="" style="endArrow=none;html=1;rounded=0;exitX=0.5;exitY=0;exitDx=0;exitDy=0;entryX=0.607;entryY=1.083;entryDx=0;entryDy=0;entryPerimeter=0;" edge="1" parent="1" source="2XGwjbtj3LddK5ASKoq5-90" target="2XGwjbtj3LddK5ASKoq5-88">
          <mxGeometry width="50" height="50" relative="1" as="geometry">
            <mxPoint x="1080" y="950" as="sourcePoint" />
            <mxPoint x="1173" y="950" as="targetPoint" />
          </mxGeometry>
        </mxCell>
        <mxCell id="2XGwjbtj3LddK5ASKoq5-101" value="" style="endArrow=none;html=1;rounded=0;exitX=1;exitY=1;exitDx=0;exitDy=0;entryX=0.05;entryY=0.333;entryDx=0;entryDy=0;entryPerimeter=0;" edge="1" parent="1" source="2XGwjbtj3LddK5ASKoq5-88" target="2XGwjbtj3LddK5ASKoq5-89">
          <mxGeometry width="50" height="50" relative="1" as="geometry">
            <mxPoint x="1140" y="930" as="sourcePoint" />
            <mxPoint x="1233" y="930" as="targetPoint" />
          </mxGeometry>
        </mxCell>
        <mxCell id="2XGwjbtj3LddK5ASKoq5-102" value="" style="endArrow=none;html=1;rounded=0;exitX=0.75;exitY=1;exitDx=0;exitDy=0;entryX=0.5;entryY=0;entryDx=0;entryDy=0;" edge="1" parent="1" source="2XGwjbtj3LddK5ASKoq5-1" target="2XGwjbtj3LddK5ASKoq5-5">
          <mxGeometry width="50" height="50" relative="1" as="geometry">
            <mxPoint x="370" y="660" as="sourcePoint" />
            <mxPoint x="463" y="660" as="targetPoint" />
          </mxGeometry>
        </mxCell>
        <mxCell id="2XGwjbtj3LddK5ASKoq5-103" value="" style="endArrow=none;html=1;rounded=0;exitX=0;exitY=1;exitDx=0;exitDy=0;entryX=1;entryY=0;entryDx=0;entryDy=0;" edge="1" parent="1" source="2XGwjbtj3LddK5ASKoq5-8" target="2XGwjbtj3LddK5ASKoq5-9">
          <mxGeometry width="50" height="50" relative="1" as="geometry">
            <mxPoint x="370" y="720" as="sourcePoint" />
            <mxPoint x="463" y="720" as="targetPoint" />
          </mxGeometry>
        </mxCell>
        <mxCell id="2XGwjbtj3LddK5ASKoq5-104" value="" style="endArrow=none;html=1;rounded=0;exitX=0.781;exitY=0.105;exitDx=0;exitDy=0;entryX=0.25;entryY=1;entryDx=0;entryDy=0;exitPerimeter=0;" edge="1" parent="1" source="2XGwjbtj3LddK5ASKoq5-12" target="2XGwjbtj3LddK5ASKoq5-8">
          <mxGeometry width="50" height="50" relative="1" as="geometry">
            <mxPoint x="560" y="640" as="sourcePoint" />
            <mxPoint x="653" y="640" as="targetPoint" />
          </mxGeometry>
        </mxCell>
        <mxCell id="2XGwjbtj3LddK5ASKoq5-105" value="" style="endArrow=none;html=1;rounded=0;exitX=0.703;exitY=0.114;exitDx=0;exitDy=0;entryX=0.395;entryY=1.066;entryDx=0;entryDy=0;exitPerimeter=0;entryPerimeter=0;" edge="1" parent="1" source="2XGwjbtj3LddK5ASKoq5-14" target="2XGwjbtj3LddK5ASKoq5-8">
          <mxGeometry width="50" height="50" relative="1" as="geometry">
            <mxPoint x="570" y="650" as="sourcePoint" />
            <mxPoint x="663" y="650" as="targetPoint" />
          </mxGeometry>
        </mxCell>
        <mxCell id="2XGwjbtj3LddK5ASKoq5-106" value="" style="endArrow=none;html=1;rounded=0;exitX=1;exitY=1;exitDx=0;exitDy=0;entryX=0.5;entryY=0;entryDx=0;entryDy=0;" edge="1" parent="1" source="2XGwjbtj3LddK5ASKoq5-8" target="2XGwjbtj3LddK5ASKoq5-15">
          <mxGeometry width="50" height="50" relative="1" as="geometry">
            <mxPoint x="660" y="670" as="sourcePoint" />
            <mxPoint x="753" y="670" as="targetPoint" />
          </mxGeometry>
        </mxCell>
        <mxCell id="2XGwjbtj3LddK5ASKoq5-107" value="" style="endArrow=none;html=1;rounded=0;exitX=1;exitY=0;exitDx=0;exitDy=0;entryX=0;entryY=0.5;entryDx=0;entryDy=0;" edge="1" parent="1" source="2XGwjbtj3LddK5ASKoq5-8" target="2XGwjbtj3LddK5ASKoq5-11">
          <mxGeometry width="50" height="50" relative="1" as="geometry">
            <mxPoint x="730" y="620" as="sourcePoint" />
            <mxPoint x="823" y="620" as="targetPoint" />
          </mxGeometry>
        </mxCell>
        <mxCell id="2XGwjbtj3LddK5ASKoq5-108" value="" style="endArrow=none;html=1;rounded=0;exitX=0.25;exitY=0;exitDx=0;exitDy=0;entryX=0.5;entryY=1;entryDx=0;entryDy=0;" edge="1" parent="1" source="2XGwjbtj3LddK5ASKoq5-8" target="2XGwjbtj3LddK5ASKoq5-18">
          <mxGeometry width="50" height="50" relative="1" as="geometry">
            <mxPoint x="780" y="550" as="sourcePoint" />
            <mxPoint x="873" y="550" as="targetPoint" />
          </mxGeometry>
        </mxCell>
        <mxCell id="2XGwjbtj3LddK5ASKoq5-109" value="" style="endArrow=none;html=1;rounded=0;exitX=0;exitY=0;exitDx=0;exitDy=0;entryX=1;entryY=0.5;entryDx=0;entryDy=0;" edge="1" parent="1" source="2XGwjbtj3LddK5ASKoq5-8" target="2XGwjbtj3LddK5ASKoq5-13">
          <mxGeometry width="50" height="50" relative="1" as="geometry">
            <mxPoint x="810" y="540" as="sourcePoint" />
            <mxPoint x="903" y="540" as="targetPoint" />
          </mxGeometry>
        </mxCell>
        <mxCell id="2XGwjbtj3LddK5ASKoq5-110" value="" style="endArrow=none;html=1;rounded=0;exitX=0.83;exitY=0.928;exitDx=0;exitDy=0;entryX=0;entryY=0.5;entryDx=0;entryDy=0;exitPerimeter=0;" edge="1" parent="1" source="2XGwjbtj3LddK5ASKoq5-8" target="2XGwjbtj3LddK5ASKoq5-17">
          <mxGeometry width="50" height="50" relative="1" as="geometry">
            <mxPoint x="800" y="550" as="sourcePoint" />
            <mxPoint x="893" y="550" as="targetPoint" />
          </mxGeometry>
        </mxCell>
        <mxCell id="2XGwjbtj3LddK5ASKoq5-111" value="" style="endArrow=none;html=1;rounded=0;exitX=0.75;exitY=1;exitDx=0;exitDy=0;entryX=0;entryY=0;entryDx=0;entryDy=0;" edge="1" parent="1" source="2XGwjbtj3LddK5ASKoq5-8" target="2XGwjbtj3LddK5ASKoq5-16">
          <mxGeometry width="50" height="50" relative="1" as="geometry">
            <mxPoint x="670" y="700" as="sourcePoint" />
            <mxPoint x="763" y="700" as="targetPoint" />
          </mxGeometry>
        </mxCell>
        <mxCell id="2XGwjbtj3LddK5ASKoq5-112" value="" style="endArrow=none;html=1;rounded=0;exitX=0.616;exitY=0.997;exitDx=0;exitDy=0;entryX=0.449;entryY=0.002;entryDx=0;entryDy=0;exitPerimeter=0;entryPerimeter=0;" edge="1" parent="1" source="2XGwjbtj3LddK5ASKoq5-8" target="2XGwjbtj3LddK5ASKoq5-20">
          <mxGeometry width="50" height="50" relative="1" as="geometry">
            <mxPoint x="670" y="710" as="sourcePoint" />
            <mxPoint x="763" y="710" as="targetPoint" />
          </mxGeometry>
        </mxCell>
        <mxCell id="2XGwjbtj3LddK5ASKoq5-113" value="" style="endArrow=none;html=1;rounded=0;entryX=0.5;entryY=1;entryDx=0;entryDy=0;exitX=0.5;exitY=0;exitDx=0;exitDy=0;" edge="1" parent="1" source="2XGwjbtj3LddK5ASKoq5-8" target="2XGwjbtj3LddK5ASKoq5-10">
          <mxGeometry width="50" height="50" relative="1" as="geometry">
            <mxPoint x="600" y="570" as="sourcePoint" />
            <mxPoint x="883" y="530" as="targetPoint" />
          </mxGeometry>
        </mxCell>
        <mxCell id="2XGwjbtj3LddK5ASKoq5-114" value="" style="endArrow=none;html=1;rounded=0;exitX=0.5;exitY=1;exitDx=0;exitDy=0;entryX=0.5;entryY=0;entryDx=0;entryDy=0;" edge="1" parent="1" source="2XGwjbtj3LddK5ASKoq5-8" target="2XGwjbtj3LddK5ASKoq5-19">
          <mxGeometry width="50" height="50" relative="1" as="geometry">
            <mxPoint x="820" y="540" as="sourcePoint" />
            <mxPoint x="913" y="540" as="targetPoint" />
          </mxGeometry>
        </mxCell>
        <mxCell id="2XGwjbtj3LddK5ASKoq5-115" value="places" style="shape=rhombus;perimeter=rhombusPerimeter;whiteSpace=wrap;html=1;align=center;" vertex="1" parent="1">
          <mxGeometry x="430" y="340" width="120" height="60" as="geometry" />
        </mxCell>
        <mxCell id="2XGwjbtj3LddK5ASKoq5-116" value="holds" style="shape=rhombus;perimeter=rhombusPerimeter;whiteSpace=wrap;html=1;align=center;" vertex="1" parent="1">
          <mxGeometry x="1000" y="1080" width="120" height="60" as="geometry" />
        </mxCell>
        <mxCell id="2XGwjbtj3LddK5ASKoq5-117" value="" style="endArrow=none;html=1;rounded=0;exitX=1;exitY=0.5;exitDx=0;exitDy=0;entryX=0.32;entryY=0.925;entryDx=0;entryDy=0;entryPerimeter=0;" edge="1" parent="1" source="2XGwjbtj3LddK5ASKoq5-116" target="2XGwjbtj3LddK5ASKoq5-41">
          <mxGeometry width="50" height="50" relative="1" as="geometry">
            <mxPoint x="1345" y="890" as="sourcePoint" />
            <mxPoint x="1300" y="820" as="targetPoint" />
            <Array as="points">
              <mxPoint x="1240" y="950" />
            </Array>
          </mxGeometry>
        </mxCell>
        <mxCell id="2XGwjbtj3LddK5ASKoq5-119" value="" style="endArrow=none;html=1;rounded=0;exitX=0.4;exitY=1.125;exitDx=0;exitDy=0;entryX=0;entryY=0.5;entryDx=0;entryDy=0;exitPerimeter=0;" edge="1" parent="1" source="2XGwjbtj3LddK5ASKoq5-1" target="2XGwjbtj3LddK5ASKoq5-116">
          <mxGeometry width="50" height="50" relative="1" as="geometry">
            <mxPoint x="745" y="1150" as="sourcePoint" />
            <mxPoint x="700" y="1080" as="targetPoint" />
            <Array as="points">
              <mxPoint x="200" y="840" />
            </Array>
          </mxGeometry>
        </mxCell>
        <mxCell id="2XGwjbtj3LddK5ASKoq5-120" value="" style="endArrow=none;html=1;rounded=0;exitX=0.5;exitY=1;exitDx=0;exitDy=0;entryX=0.75;entryY=0;entryDx=0;entryDy=0;" edge="1" parent="1" source="2XGwjbtj3LddK5ASKoq5-115" target="2XGwjbtj3LddK5ASKoq5-1">
          <mxGeometry width="50" height="50" relative="1" as="geometry">
            <mxPoint x="355" y="540" as="sourcePoint" />
            <mxPoint x="310" y="470" as="targetPoint" />
            <Array as="points">
              <mxPoint x="360" y="450" />
            </Array>
          </mxGeometry>
        </mxCell>
        <mxCell id="2XGwjbtj3LddK5ASKoq5-121" value="" style="endArrow=none;html=1;rounded=0;exitX=0;exitY=0.5;exitDx=0;exitDy=0;entryX=1;entryY=0.5;entryDx=0;entryDy=0;" edge="1" parent="1" source="2XGwjbtj3LddK5ASKoq5-73" target="2XGwjbtj3LddK5ASKoq5-115">
          <mxGeometry width="50" height="50" relative="1" as="geometry">
            <mxPoint x="655" y="370" as="sourcePoint" />
            <mxPoint x="610" y="300" as="targetPoint" />
            <Array as="points">
              <mxPoint x="900" y="300" />
            </Array>
          </mxGeometry>
        </mxCell>
        <mxCell id="2XGwjbtj3LddK5ASKoq5-122" value="Wallet" style="whiteSpace=wrap;html=1;align=center;" vertex="1" parent="1">
          <mxGeometry x="170" y="320" width="100" height="40" as="geometry" />
        </mxCell>
        <mxCell id="2XGwjbtj3LddK5ASKoq5-123" value="owns" style="shape=rhombus;perimeter=rhombusPerimeter;whiteSpace=wrap;html=1;align=center;" vertex="1" parent="1">
          <mxGeometry x="140" y="430" width="120" height="60" as="geometry" />
        </mxCell>
        <mxCell id="2XGwjbtj3LddK5ASKoq5-124" value="WalletId" style="ellipse;whiteSpace=wrap;html=1;align=center;fontStyle=4;fillColor=#9BEEFF;" vertex="1" parent="1">
          <mxGeometry x="280" y="250" width="50" height="40" as="geometry" />
        </mxCell>
        <mxCell id="2XGwjbtj3LddK5ASKoq5-125" value="BalanceETH" style="ellipse;whiteSpace=wrap;html=1;align=center;" vertex="1" parent="1">
          <mxGeometry x="180" y="240" width="80" height="40" as="geometry" />
        </mxCell>
        <mxCell id="2XGwjbtj3LddK5ASKoq5-126" value="ReservedETH" style="ellipse;whiteSpace=wrap;html=1;align=center;" vertex="1" parent="1">
          <mxGeometry x="300" y="300" width="90" height="40" as="geometry" />
        </mxCell>
        <mxCell id="2XGwjbtj3LddK5ASKoq5-127" value="UpdatedAtUtc" style="ellipse;whiteSpace=wrap;html=1;align=center;" vertex="1" parent="1">
          <mxGeometry x="80" y="270" width="90" height="40" as="geometry" />
        </mxCell>
        <mxCell id="2XGwjbtj3LddK5ASKoq5-129" value="has" style="shape=rhombus;perimeter=rhombusPerimeter;whiteSpace=wrap;html=1;align=center;" vertex="1" parent="1">
          <mxGeometry y="485" width="120" height="60" as="geometry" />
        </mxCell>
        <mxCell id="2XGwjbtj3LddK5ASKoq5-131" value="grants" style="shape=rhombus;perimeter=rhombusPerimeter;whiteSpace=wrap;html=1;align=center;" vertex="1" parent="1">
          <mxGeometry x="-240" y="365" width="120" height="60" as="geometry" />
        </mxCell>
        <mxCell id="2XGwjbtj3LddK5ASKoq5-132" value="" style="endArrow=none;html=1;rounded=0;exitX=0.5;exitY=1;exitDx=0;exitDy=0;entryX=0.5;entryY=0;entryDx=0;entryDy=0;" edge="1" parent="1" source="2XGwjbtj3LddK5ASKoq5-123" target="2XGwjbtj3LddK5ASKoq5-1">
          <mxGeometry width="50" height="50" relative="1" as="geometry">
            <mxPoint x="580" y="430" as="sourcePoint" />
            <mxPoint x="360" y="645" as="targetPoint" />
          </mxGeometry>
        </mxCell>
        <mxCell id="2XGwjbtj3LddK5ASKoq5-133" value="" style="endArrow=none;html=1;rounded=0;exitX=0.5;exitY=1;exitDx=0;exitDy=0;entryX=0;entryY=0;entryDx=0;entryDy=0;" edge="1" parent="1" source="2XGwjbtj3LddK5ASKoq5-129" target="2XGwjbtj3LddK5ASKoq5-1">
          <mxGeometry width="50" height="50" relative="1" as="geometry">
            <mxPoint x="540" y="420" as="sourcePoint" />
            <mxPoint x="320" y="635" as="targetPoint" />
          </mxGeometry>
        </mxCell>
        <mxCell id="2XGwjbtj3LddK5ASKoq5-134" value="" style="endArrow=none;html=1;rounded=0;exitX=0.5;exitY=1;exitDx=0;exitDy=0;entryX=0.5;entryY=0;entryDx=0;entryDy=0;" edge="1" parent="1" source="2XGwjbtj3LddK5ASKoq5-143" target="2XGwjbtj3LddK5ASKoq5-129">
          <mxGeometry width="50" height="50" relative="1" as="geometry">
            <mxPoint x="-20" y="415" as="sourcePoint" />
            <mxPoint x="-60" y="755" as="targetPoint" />
          </mxGeometry>
        </mxCell>
        <mxCell id="2XGwjbtj3LddK5ASKoq5-135" value="" style="endArrow=none;html=1;rounded=0;exitX=0.5;exitY=1;exitDx=0;exitDy=0;entryX=0.5;entryY=0;entryDx=0;entryDy=0;" edge="1" parent="1" source="2XGwjbtj3LddK5ASKoq5-122" target="2XGwjbtj3LddK5ASKoq5-123">
          <mxGeometry width="50" height="50" relative="1" as="geometry">
            <mxPoint x="530" y="400" as="sourcePoint" />
            <mxPoint x="310" y="615" as="targetPoint" />
          </mxGeometry>
        </mxCell>
        <mxCell id="2XGwjbtj3LddK5ASKoq5-136" value="" style="endArrow=none;html=1;rounded=0;exitX=0;exitY=0.5;exitDx=0;exitDy=0;entryX=1;entryY=0.5;entryDx=0;entryDy=0;" edge="1" parent="1" source="2XGwjbtj3LddK5ASKoq5-131" target="2XGwjbtj3LddK5ASKoq5-144">
          <mxGeometry width="50" height="50" relative="1" as="geometry">
            <mxPoint x="70" y="470" as="sourcePoint" />
            <mxPoint x="-290" y="395" as="targetPoint" />
          </mxGeometry>
        </mxCell>
        <mxCell id="2XGwjbtj3LddK5ASKoq5-137" value="" style="endArrow=none;html=1;rounded=0;exitX=1;exitY=0.5;exitDx=0;exitDy=0;entryX=0;entryY=0.5;entryDx=0;entryDy=0;" edge="1" parent="1" source="2XGwjbtj3LddK5ASKoq5-131" target="2XGwjbtj3LddK5ASKoq5-143">
          <mxGeometry width="50" height="50" relative="1" as="geometry">
            <mxPoint y="470" as="sourcePoint" />
            <mxPoint x="-70" y="395" as="targetPoint" />
          </mxGeometry>
        </mxCell>
        <mxCell id="2XGwjbtj3LddK5ASKoq5-138" value="" style="endArrow=none;html=1;rounded=0;exitX=0.5;exitY=1;exitDx=0;exitDy=0;entryX=0;entryY=0;entryDx=0;entryDy=0;" edge="1" parent="1" source="2XGwjbtj3LddK5ASKoq5-127" target="2XGwjbtj3LddK5ASKoq5-122">
          <mxGeometry width="50" height="50" relative="1" as="geometry">
            <mxPoint x="140" y="430" as="sourcePoint" />
            <mxPoint x="-80" y="645" as="targetPoint" />
          </mxGeometry>
        </mxCell>
        <mxCell id="2XGwjbtj3LddK5ASKoq5-139" value="" style="endArrow=none;html=1;rounded=0;exitX=0.5;exitY=1;exitDx=0;exitDy=0;entryX=0.5;entryY=0;entryDx=0;entryDy=0;" edge="1" parent="1" source="2XGwjbtj3LddK5ASKoq5-125" target="2XGwjbtj3LddK5ASKoq5-122">
          <mxGeometry width="50" height="50" relative="1" as="geometry">
            <mxPoint x="120" y="330" as="sourcePoint" />
            <mxPoint x="165" y="340" as="targetPoint" />
          </mxGeometry>
        </mxCell>
        <mxCell id="2XGwjbtj3LddK5ASKoq5-140" value="" style="endArrow=none;html=1;rounded=0;exitX=1;exitY=0;exitDx=0;exitDy=0;entryX=0.357;entryY=1.063;entryDx=0;entryDy=0;entryPerimeter=0;" edge="1" parent="1" source="2XGwjbtj3LddK5ASKoq5-122" target="2XGwjbtj3LddK5ASKoq5-124">
          <mxGeometry width="50" height="50" relative="1" as="geometry">
            <mxPoint x="320" y="370" as="sourcePoint" />
            <mxPoint x="365" y="380" as="targetPoint" />
          </mxGeometry>
        </mxCell>
        <mxCell id="2XGwjbtj3LddK5ASKoq5-141" value="" style="endArrow=none;html=1;rounded=0;exitX=1;exitY=0.75;exitDx=0;exitDy=0;entryX=0;entryY=0.5;entryDx=0;entryDy=0;" edge="1" parent="1" source="2XGwjbtj3LddK5ASKoq5-122" target="2XGwjbtj3LddK5ASKoq5-126">
          <mxGeometry width="50" height="50" relative="1" as="geometry">
            <mxPoint x="300" y="350" as="sourcePoint" />
            <mxPoint x="345" y="360" as="targetPoint" />
          </mxGeometry>
        </mxCell>
        <mxCell id="2XGwjbtj3LddK5ASKoq5-142" value="UserRoleId" style="ellipse;whiteSpace=wrap;html=1;align=center;fontStyle=4;fillColor=#9BEEFF;" vertex="1" parent="1">
          <mxGeometry x="20" y="320" width="70" height="40" as="geometry" />
        </mxCell>
        <mxCell id="2XGwjbtj3LddK5ASKoq5-143" value="UserRole" style="shape=ext;margin=3;double=1;whiteSpace=wrap;html=1;align=center;" vertex="1" parent="1">
          <mxGeometry x="-80" y="380" width="100" height="40" as="geometry" />
        </mxCell>
        <mxCell id="2XGwjbtj3LddK5ASKoq5-144" value="Role" style="shape=ext;margin=3;double=1;whiteSpace=wrap;html=1;align=center;" vertex="1" parent="1">
          <mxGeometry x="-390" y="375" width="100" height="40" as="geometry" />
        </mxCell>
        <mxCell id="2XGwjbtj3LddK5ASKoq5-145" value="AsignationUtc" style="ellipse;whiteSpace=wrap;html=1;align=center;" vertex="1" parent="1">
          <mxGeometry x="-100" y="310" width="90" height="40" as="geometry" />
        </mxCell>
        <mxCell id="2XGwjbtj3LddK5ASKoq5-146" value="RoleId" style="ellipse;whiteSpace=wrap;html=1;align=center;fontStyle=4;fillColor=#9BEEFF;" vertex="1" parent="1">
          <mxGeometry x="-463" y="325" width="50" height="40" as="geometry" />
        </mxCell>
        <mxCell id="2XGwjbtj3LddK5ASKoq5-147" value="Description" style="ellipse;whiteSpace=wrap;html=1;align=center;" vertex="1" parent="1">
          <mxGeometry x="-400" y="300" width="90" height="40" as="geometry" />
        </mxCell>
        <mxCell id="2XGwjbtj3LddK5ASKoq5-148" value="Name" style="ellipse;whiteSpace=wrap;html=1;align=center;" vertex="1" parent="1">
          <mxGeometry x="-463" y="415" width="53" height="40" as="geometry" />
        </mxCell>
        <mxCell id="2XGwjbtj3LddK5ASKoq5-149" value="" style="endArrow=none;html=1;rounded=0;exitX=1;exitY=0;exitDx=0;exitDy=0;entryX=0.5;entryY=1;entryDx=0;entryDy=0;" edge="1" parent="1" source="2XGwjbtj3LddK5ASKoq5-143" target="2XGwjbtj3LddK5ASKoq5-142">
          <mxGeometry width="50" height="50" relative="1" as="geometry">
            <mxPoint x="130" y="330" as="sourcePoint" />
            <mxPoint x="175" y="340" as="targetPoint" />
          </mxGeometry>
        </mxCell>
        <mxCell id="2XGwjbtj3LddK5ASKoq5-150" value="" style="endArrow=none;html=1;rounded=0;exitX=0.25;exitY=0;exitDx=0;exitDy=0;entryX=0.5;entryY=1;entryDx=0;entryDy=0;" edge="1" parent="1" source="2XGwjbtj3LddK5ASKoq5-143" target="2XGwjbtj3LddK5ASKoq5-145">
          <mxGeometry width="50" height="50" relative="1" as="geometry">
            <mxPoint x="50" y="370" as="sourcePoint" />
            <mxPoint x="95" y="380" as="targetPoint" />
          </mxGeometry>
        </mxCell>
        <mxCell id="2XGwjbtj3LddK5ASKoq5-151" value="" style="endArrow=none;html=1;rounded=0;exitX=0;exitY=1;exitDx=0;exitDy=0;entryX=1;entryY=0.5;entryDx=0;entryDy=0;" edge="1" parent="1" source="2XGwjbtj3LddK5ASKoq5-144" target="2XGwjbtj3LddK5ASKoq5-148">
          <mxGeometry width="50" height="50" relative="1" as="geometry">
            <mxPoint x="-180" y="450" as="sourcePoint" />
            <mxPoint x="-135" y="460" as="targetPoint" />
          </mxGeometry>
        </mxCell>
        <mxCell id="2XGwjbtj3LddK5ASKoq5-152" value="" style="endArrow=none;html=1;rounded=0;exitX=0.5;exitY=0;exitDx=0;exitDy=0;entryX=0.5;entryY=1;entryDx=0;entryDy=0;" edge="1" parent="1" source="2XGwjbtj3LddK5ASKoq5-144" target="2XGwjbtj3LddK5ASKoq5-147">
          <mxGeometry width="50" height="50" relative="1" as="geometry">
            <mxPoint x="-350" y="440" as="sourcePoint" />
            <mxPoint x="-305" y="450" as="targetPoint" />
          </mxGeometry>
        </mxCell>
        <mxCell id="2XGwjbtj3LddK5ASKoq5-153" value="" style="endArrow=none;html=1;rounded=0;exitX=0;exitY=0;exitDx=0;exitDy=0;entryX=0.867;entryY=0.729;entryDx=0;entryDy=0;entryPerimeter=0;" edge="1" parent="1" source="2XGwjbtj3LddK5ASKoq5-144" target="2XGwjbtj3LddK5ASKoq5-146">
          <mxGeometry width="50" height="50" relative="1" as="geometry">
            <mxPoint x="-360" y="470" as="sourcePoint" />
            <mxPoint x="-315" y="480" as="targetPoint" />
          </mxGeometry>
        </mxCell>
        <mxCell id="2XGwjbtj3LddK5ASKoq5-154" value="1:N" style="text;html=1;align=center;verticalAlign=middle;resizable=0;points=[];autosize=1;strokeColor=none;fillColor=none;" vertex="1" parent="1">
          <mxGeometry x="370" y="555" width="40" height="30" as="geometry" />
        </mxCell>
        <mxCell id="2XGwjbtj3LddK5ASKoq5-155" value="1:1" style="text;html=1;align=center;verticalAlign=middle;resizable=0;points=[];autosize=1;strokeColor=none;fillColor=none;" vertex="1" parent="1">
          <mxGeometry x="810" y="550" width="40" height="30" as="geometry" />
        </mxCell>
        <mxCell id="2XGwjbtj3LddK5ASKoq5-156" value="1:N" style="text;html=1;align=center;verticalAlign=middle;resizable=0;points=[];autosize=1;strokeColor=none;fillColor=none;" vertex="1" parent="1">
          <mxGeometry x="733" y="455" width="40" height="30" as="geometry" />
        </mxCell>
        <mxCell id="2XGwjbtj3LddK5ASKoq5-158" value="1:N" style="text;html=1;align=center;verticalAlign=middle;resizable=0;points=[];autosize=1;strokeColor=none;fillColor=none;" vertex="1" parent="1">
          <mxGeometry x="1260" y="625" width="40" height="30" as="geometry" />
        </mxCell>
        <mxCell id="2XGwjbtj3LddK5ASKoq5-159" value="1:N" style="text;html=1;align=center;verticalAlign=middle;resizable=0;points=[];autosize=1;strokeColor=none;fillColor=none;" vertex="1" parent="1">
          <mxGeometry x="1080" y="808" width="40" height="30" as="geometry" />
        </mxCell>
        <mxCell id="2XGwjbtj3LddK5ASKoq5-160" value="1:N" style="text;html=1;align=center;verticalAlign=middle;resizable=0;points=[];autosize=1;strokeColor=none;fillColor=none;" vertex="1" parent="1">
          <mxGeometry x="1180" y="445" width="40" height="30" as="geometry" />
        </mxCell>
        <mxCell id="2XGwjbtj3LddK5ASKoq5-161" value="1:N" style="text;html=1;align=center;verticalAlign=middle;resizable=0;points=[];autosize=1;strokeColor=none;fillColor=none;" vertex="1" parent="1">
          <mxGeometry x="1040" y="1050" width="40" height="30" as="geometry" />
        </mxCell>
        <mxCell id="2XGwjbtj3LddK5ASKoq5-162" value="1:N" style="text;html=1;align=center;verticalAlign=middle;resizable=0;points=[];autosize=1;strokeColor=none;fillColor=none;" vertex="1" parent="1">
          <mxGeometry x="810" y="878" width="40" height="30" as="geometry" />
        </mxCell>
        <mxCell id="2XGwjbtj3LddK5ASKoq5-163" value="1:N" style="text;html=1;align=center;verticalAlign=middle;resizable=0;points=[];autosize=1;strokeColor=none;fillColor=none;" vertex="1" parent="1">
          <mxGeometry x="470" y="315" width="40" height="30" as="geometry" />
        </mxCell>
        <mxCell id="2XGwjbtj3LddK5ASKoq5-164" value="1:N" style="text;html=1;align=center;verticalAlign=middle;resizable=0;points=[];autosize=1;strokeColor=none;fillColor=none;" vertex="1" parent="1">
          <mxGeometry x="470" y="415" width="40" height="30" as="geometry" />
        </mxCell>
        <mxCell id="2XGwjbtj3LddK5ASKoq5-165" value="1:1" style="text;html=1;align=center;verticalAlign=middle;resizable=0;points=[];autosize=1;strokeColor=none;fillColor=none;" vertex="1" parent="1">
          <mxGeometry x="210" y="410" width="40" height="30" as="geometry" />
        </mxCell>
        <mxCell id="2XGwjbtj3LddK5ASKoq5-166" value="1:N" style="text;html=1;align=center;verticalAlign=middle;resizable=0;points=[];autosize=1;strokeColor=none;fillColor=none;" vertex="1" parent="1">
          <mxGeometry y="475" width="40" height="30" as="geometry" />
        </mxCell>
        <mxCell id="2XGwjbtj3LddK5ASKoq5-167" value="1:N" style="text;html=1;align=center;verticalAlign=middle;resizable=0;points=[];autosize=1;strokeColor=none;fillColor=none;" vertex="1" parent="1">
          <mxGeometry x="-200" y="340" width="40" height="30" as="geometry" />
        </mxCell>
        <mxCell id="2XGwjbtj3LddK5ASKoq5-168" value="has" style="shape=rhombus;perimeter=rhombusPerimeter;whiteSpace=wrap;html=1;align=center;" vertex="1" parent="1">
          <mxGeometry x="-50" y="590" width="120" height="60" as="geometry" />
        </mxCell>
        <mxCell id="2XGwjbtj3LddK5ASKoq5-169" value="" style="endArrow=none;html=1;rounded=0;exitX=1;exitY=0.5;exitDx=0;exitDy=0;entryX=0;entryY=0.5;entryDx=0;entryDy=0;" edge="1" parent="1" source="2XGwjbtj3LddK5ASKoq5-170" target="2XGwjbtj3LddK5ASKoq5-168">
          <mxGeometry width="50" height="50" relative="1" as="geometry">
            <mxPoint x="-70" y="660" as="sourcePoint" />
            <mxPoint x="-110" y="1000" as="targetPoint" />
          </mxGeometry>
        </mxCell>
        <mxCell id="2XGwjbtj3LddK5ASKoq5-170" value="UserEmail" style="shape=ext;margin=3;double=1;whiteSpace=wrap;html=1;align=center;" vertex="1" parent="1">
          <mxGeometry x="-190" y="635" width="100" height="40" as="geometry" />
        </mxCell>
        <mxCell id="2XGwjbtj3LddK5ASKoq5-171" value="1:N" style="text;html=1;align=center;verticalAlign=middle;resizable=0;points=[];autosize=1;strokeColor=none;fillColor=none;" vertex="1" parent="1">
          <mxGeometry x="-10" y="560" width="40" height="30" as="geometry" />
        </mxCell>
        <mxCell id="2XGwjbtj3LddK5ASKoq5-173" value="" style="endArrow=none;html=1;rounded=0;exitX=1;exitY=0.5;exitDx=0;exitDy=0;entryX=0;entryY=0.25;entryDx=0;entryDy=0;" edge="1" parent="1" source="2XGwjbtj3LddK5ASKoq5-168" target="2XGwjbtj3LddK5ASKoq5-1">
          <mxGeometry width="50" height="50" relative="1" as="geometry">
            <mxPoint x="110" y="580" as="sourcePoint" />
            <mxPoint x="210" y="620" as="targetPoint" />
          </mxGeometry>
        </mxCell>
        <mxCell id="2XGwjbtj3LddK5ASKoq5-174" value="EmailId" style="ellipse;whiteSpace=wrap;html=1;align=center;fontStyle=4;fillColor=#9BEEFF;" vertex="1" parent="1">
          <mxGeometry x="-270" y="670" width="50" height="40" as="geometry" />
        </mxCell>
        <mxCell id="2XGwjbtj3LddK5ASKoq5-175" value="Email" style="ellipse;whiteSpace=wrap;html=1;align=center;" vertex="1" parent="1">
          <mxGeometry x="-240" y="720" width="50" height="40" as="geometry" />
        </mxCell>
        <mxCell id="2XGwjbtj3LddK5ASKoq5-176" value="IsPrimary" style="ellipse;whiteSpace=wrap;html=1;align=center;" vertex="1" parent="1">
          <mxGeometry x="-180" y="730" width="60" height="40" as="geometry" />
        </mxCell>
        <mxCell id="2XGwjbtj3LddK5ASKoq5-177" value="AddedAtUtc" style="ellipse;whiteSpace=wrap;html=1;align=center;" vertex="1" parent="1">
          <mxGeometry x="-110" y="730" width="70" height="40" as="geometry" />
        </mxCell>
        <mxCell id="2XGwjbtj3LddK5ASKoq5-179" value="VerifiedAtUtc" style="ellipse;whiteSpace=wrap;html=1;align=center;" vertex="1" parent="1">
          <mxGeometry x="-60" y="690" width="90" height="40" as="geometry" />
        </mxCell>
        <mxCell id="2XGwjbtj3LddK5ASKoq5-180" value="StatusCode" style="ellipse;whiteSpace=wrap;html=1;align=center;" vertex="1" parent="1">
          <mxGeometry x="-300" y="600" width="70" height="40" as="geometry" />
        </mxCell>
        <mxCell id="2XGwjbtj3LddK5ASKoq5-182" value="" style="endArrow=none;html=1;rounded=0;exitX=1;exitY=1;exitDx=0;exitDy=0;entryX=0;entryY=0;entryDx=0;entryDy=0;" edge="1" parent="1" source="2XGwjbtj3LddK5ASKoq5-170" target="2XGwjbtj3LddK5ASKoq5-179">
          <mxGeometry width="50" height="50" relative="1" as="geometry">
            <mxPoint x="-70" y="685" as="sourcePoint" />
            <mxPoint x="-30" y="650" as="targetPoint" />
          </mxGeometry>
        </mxCell>
        <mxCell id="2XGwjbtj3LddK5ASKoq5-183" value="" style="endArrow=none;html=1;rounded=0;exitX=0.8;exitY=1.125;exitDx=0;exitDy=0;entryX=0.5;entryY=0;entryDx=0;entryDy=0;exitPerimeter=0;" edge="1" parent="1" source="2XGwjbtj3LddK5ASKoq5-170" target="2XGwjbtj3LddK5ASKoq5-177">
          <mxGeometry width="50" height="50" relative="1" as="geometry">
            <mxPoint x="-110" y="725" as="sourcePoint" />
            <mxPoint x="-70" y="690" as="targetPoint" />
          </mxGeometry>
        </mxCell>
        <mxCell id="2XGwjbtj3LddK5ASKoq5-184" value="" style="endArrow=none;html=1;rounded=0;exitX=0.5;exitY=1;exitDx=0;exitDy=0;entryX=0.5;entryY=0;entryDx=0;entryDy=0;" edge="1" parent="1" source="2XGwjbtj3LddK5ASKoq5-170" target="2XGwjbtj3LddK5ASKoq5-176">
          <mxGeometry width="50" height="50" relative="1" as="geometry">
            <mxPoint x="-130" y="745" as="sourcePoint" />
            <mxPoint x="-90" y="710" as="targetPoint" />
          </mxGeometry>
        </mxCell>
        <mxCell id="2XGwjbtj3LddK5ASKoq5-185" value="" style="endArrow=none;html=1;rounded=0;exitX=0.179;exitY=0.937;exitDx=0;exitDy=0;entryX=0.8;entryY=0;entryDx=0;entryDy=0;exitPerimeter=0;entryPerimeter=0;" edge="1" parent="1" source="2XGwjbtj3LddK5ASKoq5-170" target="2XGwjbtj3LddK5ASKoq5-175">
          <mxGeometry width="50" height="50" relative="1" as="geometry">
            <mxPoint x="-200" y="745" as="sourcePoint" />
            <mxPoint x="-160" y="710" as="targetPoint" />
          </mxGeometry>
        </mxCell>
        <mxCell id="2XGwjbtj3LddK5ASKoq5-186" value="" style="endArrow=none;html=1;rounded=0;exitX=1;exitY=0.5;exitDx=0;exitDy=0;entryX=0.021;entryY=0.627;entryDx=0;entryDy=0;entryPerimeter=0;" edge="1" parent="1" source="2XGwjbtj3LddK5ASKoq5-174" target="2XGwjbtj3LddK5ASKoq5-170">
          <mxGeometry width="50" height="50" relative="1" as="geometry">
            <mxPoint x="-180" y="735" as="sourcePoint" />
            <mxPoint x="-140" y="700" as="targetPoint" />
          </mxGeometry>
        </mxCell>
        <mxCell id="2XGwjbtj3LddK5ASKoq5-187" value="" style="endArrow=none;html=1;rounded=0;exitX=1;exitY=0.5;exitDx=0;exitDy=0;entryX=0.055;entryY=0.041;entryDx=0;entryDy=0;entryPerimeter=0;" edge="1" parent="1" source="2XGwjbtj3LddK5ASKoq5-180" target="2XGwjbtj3LddK5ASKoq5-170">
          <mxGeometry width="50" height="50" relative="1" as="geometry">
            <mxPoint x="-170" y="605" as="sourcePoint" />
            <mxPoint x="-130" y="570" as="targetPoint" />
          </mxGeometry>
        </mxCell>
      </root>
    </mxGraphModel>
  </diagram>
</mxfile>
